<svg viewBox="0 0 12000 12000" xmlns="http://www.w3.org/2000/svg" width="120mm" height="120mm" version="1.1">
 <defs>
  <style type="text/css">
   <![CDATA[
    .str1 {stroke:#2B2A29;stroke-width:310;stroke-miterlimit:22.9256}
    .str2 {stroke:#2B2A29;stroke-width:7.62;stroke-miterlimit:22.9256}
    .str0 {stroke:#2B2A29;stroke-width:7.62;stroke-miterlimit:22.9256}
    .fil3 {fill:none}
    .fil5 {fill:none;fill-rule:nonzero}
    .fil2 {fill:#2B2A29}
    .fil0 {fill:#B046C2}
    .fil1 {fill:#FEFEFE}
    .fil4 {fill:#2B2A29;fill-rule:nonzero}
   ]]>
  </style>
 </defs>
 <g>
  <circle class="fil0" cx="6021.74" cy="6000" r="2349.26"/>
  <path class="fil1" d="M8100.02 4949.43c158.36,316.15 247.6,672.91 247.6,1050.57 0,275.95 -47.73,540.73 -135.12,786.69l-4428.27 0c-87.39,-245.96 -135.13,-510.74 -135.13,-786.69 0,-377.66 89.25,-734.42 247.6,-1050.57l4203.32 0z"/>
  <polygon class="fil2 str0" points="3922.18,4644.07 8067.99,4644.07 8067.99,4949.43 3922.18,4949.43 "/>
  <polygon class="fil2" points="3783.47,6722.45 8276.75,6722.45 8276.75,7027.8 3783.47,7027.8 "/>
  <circle class="fil3 str1" cx="6000" cy="6000" r="2390.19"/>
  <polygon class="fil4" points="4079.72,6250.12 4079.72,5592.96 4162.55,5592.96 4162.55,5870 4420.26,5870 4420.26,5592.96 4503.1,5592.96 4503.1,6250.12 4420.26,6250.12 4420.26,5943.63 4162.55,5943.63 4162.55,6250.12 "/>
  <path id="1" class="fil4" d="M4793.94 6259.32c-48.48,0 -87.59,-11.96 -117.35,-35.89 -29.76,-23.93 -44.64,-60.13 -44.64,-108.61 0,-35.59 8.59,-65.19 25.77,-88.81 17.18,-23.63 42.49,-41.42 75.93,-53.39 33.44,-11.96 74.09,-18.56 121.95,-19.79l105.85 -2.76 0 -20.25c0,-44.17 -11.05,-74.39 -33.14,-90.65 -22.09,-16.26 -51.85,-24.39 -89.27,-24.39 -26.39,0 -51.55,3.37 -75.48,10.12 -23.93,6.75 -46.63,16.26 -68.11,28.53l-28.53 -62.58c23.32,-11.66 49.24,-21.79 77.78,-30.38 28.53,-8.59 61.51,-12.88 98.94,-12.88 61.97,0 109.68,13.96 143.12,41.87 33.44,27.92 50.16,71.34 50.16,130.24l0 330.42 -66.27 0 -9.2 -68.11 -3.68 0c-13.5,17.18 -28.38,31.45 -44.64,42.8 -16.26,11.35 -34.21,19.94 -53.85,25.77 -19.63,5.83 -41.41,8.74 -65.34,8.74zm13.8 -67.18c27.61,0 53.08,-5.07 76.39,-15.19 23.32,-10.13 42.04,-25.47 56.15,-46.02 14.11,-20.56 21.17,-46.48 21.17,-77.77l0 -44.18 -88.36 2.76c-39.27,1.23 -70.87,5.98 -94.8,14.27 -23.93,8.28 -41.26,19.63 -52,34.05 -10.74,14.42 -16.11,31.75 -16.11,52 0,28.23 8.9,48.63 26.69,61.21 17.8,12.58 41.42,18.87 70.87,18.87z"/>
  <path id="2" class="fil4" d="M5176.81 6250.12l0 -55.22 150.03 -13.81 0 -355.27 -135.3 -11.96 0 -57.07 201.57 0 11.04 90.2 3.68 0c17.18,-32.52 36.05,-57.22 56.61,-74.09 20.55,-16.88 47.7,-25.31 81.45,-25.31 20.86,0 39.42,1.84 55.68,5.52 16.26,3.68 31.14,8.59 44.64,14.73l-22.09 72.71c-9.81,-5.53 -21.47,-10.28 -34.97,-14.27 -13.5,-3.99 -27.92,-5.98 -43.26,-5.98 -26.38,0 -49.7,8.28 -69.95,24.85 -20.25,16.57 -36.2,38.65 -47.86,66.27 -11.66,27.61 -17.49,57.98 -17.49,91.12l0 178.55 143.58 13.81 0 55.22 -377.36 0z"/>
  <path id="3" class="fil4" d="M5974.79 6259.32c-36.2,0 -66.73,-7.21 -91.58,-21.63 -24.85,-14.41 -44.33,-31.14 -58.45,-50.16l-5.52 0 -7.36 62.59 -66.27 0 0 -699.5 80.08 0 0 169.36c0,17.18 -0.16,34.05 -0.47,50.62 -0.3,16.56 -1.38,33.44 -3.22,50.62l3.69 0c12.88,-19.64 31.6,-36.82 56.14,-51.54 24.54,-14.73 55.53,-22.09 92.96,-22.09 29.45,0 56.45,5.37 80.99,16.1 24.55,10.74 45.56,26.85 63.05,48.32 17.49,21.48 30.99,48.17 40.5,80.08 9.51,31.91 14.26,68.72 14.26,110.45 0,42.33 -4.75,79.46 -14.26,111.36 -9.51,31.91 -23.17,58.75 -40.96,80.54 -17.8,21.78 -38.81,38.04 -63.05,48.78 -24.23,10.73 -51.08,16.1 -80.53,16.1zm-15.65 -67.18c44.79,0 77.62,-16.26 98.48,-48.79 20.87,-32.52 31.3,-79.46 31.3,-140.81 0,-60.14 -10.43,-106.46 -31.3,-138.98 -20.86,-32.52 -53.99,-48.78 -99.4,-48.78 -42.34,0 -75.01,16.1 -98.02,48.32 -23.01,32.21 -34.51,78.08 -34.51,137.59 0,61.98 10.89,109.38 32.67,142.2 21.78,32.83 55.38,49.25 100.78,49.25z"/>
  <path id="4" class="fil4" d="M6501.25 6259.32c-31.91,0 -61.67,-5.21 -89.28,-15.64 -27.61,-10.43 -51.7,-26.39 -72.25,-47.86 -20.56,-21.48 -36.51,-48.32 -47.86,-80.54 -11.35,-32.21 -17.03,-70.1 -17.03,-113.67 0,-57.06 9.67,-104.31 28.99,-141.74 19.33,-37.42 45.87,-65.5 79.62,-84.21 33.75,-18.72 72.09,-28.07 115.05,-28.07 42.95,0 81.6,9.35 115.97,28.07 34.36,18.71 61.51,46.94 81.45,84.67 19.94,37.74 29.91,85.75 29.91,144.05 0,42.95 -5.67,80.38 -17.02,112.28 -11.36,31.91 -27,58.45 -46.94,79.62 -19.95,21.17 -43.57,36.97 -70.87,47.4 -27.31,10.43 -57.22,15.64 -89.74,15.64zm-0.92 -67.18c31.9,0 58.29,-7.67 79.15,-23.01 20.86,-15.34 36.51,-37.28 46.94,-65.81 10.43,-28.53 15.65,-62.13 15.65,-100.78 0,-39.27 -5.22,-72.87 -15.65,-100.79 -10.43,-27.92 -26.23,-49.39 -47.4,-64.42 -21.17,-15.04 -47.71,-22.55 -79.61,-22.55 -47.86,0 -83.61,16.72 -107.23,50.16 -23.62,33.44 -35.43,79.3 -35.43,137.6 0,38.65 5.37,72.25 16.1,100.78 10.74,28.53 26.69,50.47 47.86,65.81 21.17,15.34 47.71,23.01 79.62,23.01z"/>
  <path id="5" class="fil4" d="M7016.66 6259.32c-58.29,0 -101.39,-14.57 -129.31,-43.71 -27.92,-29.15 -41.88,-72.56 -41.88,-130.24l0 -328.58 82.83 0 0 315.69c0,39.27 8.13,69.03 24.39,89.28 16.26,20.25 44.34,30.38 84.22,30.38 34.36,0 61.36,-7.21 80.99,-21.63 19.64,-14.42 33.6,-35.13 41.88,-62.13 8.29,-27 12.43,-59.52 12.43,-97.56l0 -254.03 82.83 0 0 493.33 -66.27 0 -11.96 -66.27 -4.6 0c-11.66,18.41 -25.16,33.14 -40.5,44.18 -15.34,11.05 -32.52,19.02 -51.54,23.93 -19.02,4.91 -40.19,7.36 -63.51,7.36z"/>
  <path id="6" class="fil4" d="M7385.73 6250.12l0 -55.22 150.03 -13.81 0 -355.27 -135.3 -11.96 0 -57.07 201.57 0 11.04 90.2 3.68 0c17.18,-32.52 36.05,-57.22 56.61,-74.09 20.55,-16.88 47.7,-25.31 81.45,-25.31 20.86,0 39.42,1.84 55.68,5.52 16.26,3.68 31.14,8.59 44.64,14.73l-22.09 72.71c-9.81,-5.53 -21.47,-10.28 -34.97,-14.27 -13.5,-3.99 -27.92,-5.98 -43.26,-5.98 -26.38,0 -49.7,8.28 -69.95,24.85 -20.25,16.57 -36.2,38.65 -47.86,66.27 -11.66,27.61 -17.49,57.98 -17.49,91.12l0 178.55 143.58 13.81 0 55.22 -377.36 0z"/>
  <polygon id="7" class="fil5 str2" points="4079.72,6250.12 4079.72,5592.96 4162.55,5592.96 4162.55,5870 4420.26,5870 4420.26,5592.96 4503.1,5592.96 4503.1,6250.12 4420.26,6250.12 4420.26,5943.63 4162.55,5943.63 4162.55,6250.12 "/>
  <path id="8" class="fil5 str2" d="M4793.94 6259.32c-48.48,0 -87.59,-11.96 -117.35,-35.89 -29.76,-23.93 -44.64,-60.13 -44.64,-108.61 0,-35.59 8.59,-65.19 25.77,-88.81 17.18,-23.63 42.49,-41.42 75.93,-53.39 33.44,-11.96 74.09,-18.56 121.95,-19.79l105.85 -2.76 0 -20.25c0,-44.17 -11.05,-74.39 -33.14,-90.65 -22.09,-16.26 -51.85,-24.39 -89.27,-24.39 -26.39,0 -51.55,3.37 -75.48,10.12 -23.93,6.75 -46.63,16.26 -68.11,28.53l-28.53 -62.58c23.32,-11.66 49.24,-21.79 77.78,-30.38 28.53,-8.59 61.51,-12.88 98.94,-12.88 61.97,0 109.68,13.96 143.12,41.87 33.44,27.92 50.16,71.34 50.16,130.24l0 330.42 -66.27 0 -9.2 -68.11 -3.68 0c-13.5,17.18 -28.38,31.45 -44.64,42.8 -16.26,11.35 -34.21,19.94 -53.85,25.77 -19.63,5.83 -41.41,8.74 -65.34,8.74zm13.8 -67.18c27.61,0 53.08,-5.07 76.39,-15.19 23.32,-10.13 42.04,-25.47 56.15,-46.02 14.11,-20.56 21.17,-46.48 21.17,-77.77l0 -44.18 -88.36 2.76c-39.27,1.23 -70.87,5.98 -94.8,14.27 -23.93,8.28 -41.26,19.63 -52,34.05 -10.74,14.42 -16.11,31.75 -16.11,52 0,28.23 8.9,48.63 26.69,61.21 17.8,12.58 41.42,18.87 70.87,18.87z"/>
  <path id="9" class="fil5 str2" d="M5176.81 6250.12l0 -55.22 150.03 -13.81 0 -355.27 -135.3 -11.96 0 -57.07 201.57 0 11.04 90.2 3.68 0c17.18,-32.52 36.05,-57.22 56.61,-74.09 20.55,-16.88 47.7,-25.31 81.45,-25.31 20.86,0 39.42,1.84 55.68,5.52 16.26,3.68 31.14,8.59 44.64,14.73l-22.09 72.71c-9.81,-5.53 -21.47,-10.28 -34.97,-14.27 -13.5,-3.99 -27.92,-5.98 -43.26,-5.98 -26.38,0 -49.7,8.28 -69.95,24.85 -20.25,16.57 -36.2,38.65 -47.86,66.27 -11.66,27.61 -17.49,57.98 -17.49,91.12l0 178.55 143.58 13.81 0 55.22 -377.36 0z"/>
  <path id="10" class="fil5 str2" d="M5974.79 6259.32c-36.2,0 -66.73,-7.21 -91.58,-21.63 -24.85,-14.41 -44.33,-31.14 -58.45,-50.16l-5.52 0 -7.36 62.59 -66.27 0 0 -699.5 80.08 0 0 169.36c0,17.18 -0.16,34.05 -0.47,50.62 -0.3,16.56 -1.38,33.44 -3.22,50.62l3.69 0c12.88,-19.64 31.6,-36.82 56.14,-51.54 24.54,-14.73 55.53,-22.09 92.96,-22.09 29.45,0 56.45,5.37 80.99,16.1 24.55,10.74 45.56,26.85 63.05,48.32 17.49,21.48 30.99,48.17 40.5,80.08 9.51,31.91 14.26,68.72 14.26,110.45 0,42.33 -4.75,79.46 -14.26,111.36 -9.51,31.91 -23.17,58.75 -40.96,80.54 -17.8,21.78 -38.81,38.04 -63.05,48.78 -24.23,10.73 -51.08,16.1 -80.53,16.1zm-15.65 -67.18c44.79,0 77.62,-16.26 98.48,-48.79 20.87,-32.52 31.3,-79.46 31.3,-140.81 0,-60.14 -10.43,-106.46 -31.3,-138.98 -20.86,-32.52 -53.99,-48.78 -99.4,-48.78 -42.34,0 -75.01,16.1 -98.02,48.32 -23.01,32.21 -34.51,78.08 -34.51,137.59 0,61.98 10.89,109.38 32.67,142.2 21.78,32.83 55.38,49.25 100.78,49.25z"/>
  <path id="11" class="fil5 str2" d="M6501.25 6259.32c-31.91,0 -61.67,-5.21 -89.28,-15.64 -27.61,-10.43 -51.7,-26.39 -72.25,-47.86 -20.56,-21.48 -36.51,-48.32 -47.86,-80.54 -11.35,-32.21 -17.03,-70.1 -17.03,-113.67 0,-57.06 9.67,-104.31 28.99,-141.74 19.33,-37.42 45.87,-65.5 79.62,-84.21 33.75,-18.72 72.09,-28.07 115.05,-28.07 42.95,0 81.6,9.35 115.97,28.07 34.36,18.71 61.51,46.94 81.45,84.67 19.94,37.74 29.91,85.75 29.91,144.05 0,42.95 -5.67,80.38 -17.02,112.28 -11.36,31.91 -27,58.45 -46.94,79.62 -19.95,21.17 -43.57,36.97 -70.87,47.4 -27.31,10.43 -57.22,15.64 -89.74,15.64zm-0.92 -67.18c31.9,0 58.29,-7.67 79.15,-23.01 20.86,-15.34 36.51,-37.28 46.94,-65.81 10.43,-28.53 15.65,-62.13 15.65,-100.78 0,-39.27 -5.22,-72.87 -15.65,-100.79 -10.43,-27.92 -26.23,-49.39 -47.4,-64.42 -21.17,-15.04 -47.71,-22.55 -79.61,-22.55 -47.86,0 -83.61,16.72 -107.23,50.16 -23.62,33.44 -35.43,79.3 -35.43,137.6 0,38.65 5.37,72.25 16.1,100.78 10.74,28.53 26.69,50.47 47.86,65.81 21.17,15.34 47.71,23.01 79.62,23.01z"/>
  <path id="12" class="fil5 str2" d="M7016.66 6259.32c-58.29,0 -101.39,-14.57 -129.31,-43.71 -27.92,-29.15 -41.88,-72.56 -41.88,-130.24l0 -328.58 82.83 0 0 315.69c0,39.27 8.13,69.03 24.39,89.28 16.26,20.25 44.34,30.38 84.22,30.38 34.36,0 61.36,-7.21 80.99,-21.63 19.64,-14.42 33.6,-35.13 41.88,-62.13 8.29,-27 12.43,-59.52 12.43,-97.56l0 -254.03 82.83 0 0 493.33 -66.27 0 -11.96 -66.27 -4.6 0c-11.66,18.41 -25.16,33.14 -40.5,44.18 -15.34,11.05 -32.52,19.02 -51.54,23.93 -19.02,4.91 -40.19,7.36 -63.51,7.36z"/>
  <path id="13" class="fil5 str2" d="M7385.73 6250.12l0 -55.22 150.03 -13.81 0 -355.27 -135.3 -11.96 0 -57.07 201.57 0 11.04 90.2 3.68 0c17.18,-32.52 36.05,-57.22 56.61,-74.09 20.55,-16.88 47.7,-25.31 81.45,-25.31 20.86,0 39.42,1.84 55.68,5.52 16.26,3.68 31.14,8.59 44.64,14.73l-22.09 72.71c-9.81,-5.53 -21.47,-10.28 -34.97,-14.27 -13.5,-3.99 -27.92,-5.98 -43.26,-5.98 -26.38,0 -49.7,8.28 -69.95,24.85 -20.25,16.57 -36.2,38.65 -47.86,66.27 -11.66,27.61 -17.49,57.98 -17.49,91.12l0 178.55 143.58 13.81 0 55.22 -377.36 0z"/>
 </g>
</svg>
