<?xml version="1.0" encoding="UTF-8" standalone="no"?>
<svg xmlns="http://www.w3.org/2000/svg" version="1.1" viewBox="0 0 2864 2864">
	<g transform="matrix(1.0187 0 0 -1.0187 4.4018 2645.1)">
		<path fill="#9f0e22" d="m2803.1 245.62c-436.6-83.58-1379-53.17-2499.5 103.02 73.88-31.35 130.6-67 199.26-111.47 1097.7-155.37 1818.9-150.31 2244.4-59.1 38.85 21.957 43.91 37.157 55.76 67.555"/>
		<path fill="#4997d9" d="m750.84 519.2c-3.262-8.187-6.348-15.597-9.176-22.133 120.33 30.688 225.27 104.94 343.09 35.821 15.74 220.5 47.34 458.82 171.17 807.11 4.24 87.85 10.44 177.85 18.72 275.68-32.94-389.52-32.94-655.74-4.41-1155.2-153.8 24.028-431.28 6.567-566.01-45.722 10.98 25.562 26.933 61.226 46.617 104.39"/>
		<path fill="#0974c5" d="m558.34 742.5c206.46 87.387 255.05 179.55 421.46 166.68 51.215 535.04 176.58 737.28 298.16 1058.4-99.69-165.17-197.96-330.05-290.65-486.98 0.004 0.03 0.016 0.07 0.02 0.1 98.45 166.7 203.2 342.34 309.27 517.76-184.9-490.6-226.6-1220.8-226.6-1399.4-75.53 39.45-340.48 21.45-649.63-102.93 25.957 48.164 73.844 133.75 137.98 246.33"/>
		<path fill="#095fa8" d="m1264.8 2259.2c-295.98-412.1-311.37-1067.9-311.37-1246.4-220.05 63.8-464.31-63.84-681.2-200.28 150.56 231.08 602.1 919.58 992.57 1446.7"/>
		<g fill="#09397f">
			<path d="m2792.6 267.38c-392.8-75.25-1211.2-45.62-2225.6 70.81-98.76 11.36-382.5 45.59-553 67.61-9.2617 15.18-14 39.61-14 69.3 632.2-67.23 2233.1-269.63 2784.6-164.72 2.5-11.766 8.83-18.098 8.1-43.004"/>
			<path d="m785.88 601.97c1.082 0.179 2.16 0.367 3.242 0.547-13.808-29.848-26.586-57.637-38.09-82.868-0.066-0.148-0.125-0.3-0.187-0.453-19.684-43.168-35.637-78.832-46.617-104.39 134.73 52.289 412.21 69.75 566.01 45.722-28.35 496.39-28.52 762.42 3.82 1148.1 0.2 0.4 0.4 0.78 0.59 1.17-32.94-389.51-27.09-673.28 1.45-1172.8-153.81 24.121-454.6 0.813-589.33-51.48 19.199 44.738 54.55 121.61 99.113 216.42"/>
			<path d="m769.87 0c0.821 1.0156 1.688 2.1211 2.567 3.125 45.586 54.125 131.16 99.047 254.52 94.684 240.49-8.4375 443.31-25.039 809.32-7.0547-360 9.1445-798.36 47.129-1326.7 121.93 131.33-76.34 240.53-191.29 260.3-212.68"/>
		</g>
		<path d="m751.03 519.65c11.504 25.231 24.282 53.02 38.09 82.868 136.25 22.773 238.44 18.75 280.86-3.395 0 105.56 14.6 403.9 64.73 731.58 56.28 116.28 105.94 217.58 139.93 284.98-8.28-97.83-14.48-187.83-18.72-275.68-123.83-348.3-155.43-586.62-171.17-807.11-117.82 69.121-222.75-5.133-343.09-35.821 2.883 6.661 6.031 14.219 9.363 22.586"/>
		<path d="m598.27 812.4c35.711 62.352 75.312 131.12 118.09 204.98 80.535 16.61 160.26 17.66 237.08-4.62 0 80.69 3.144 258.8 33.886 467.83 92.69 156.93 190.96 321.81 290.65 486.98-121.58-321.11-246.95-523.35-298.16-1058.4-166.41 12.871-215-79.289-421.46-166.68 12.691 22.281 25.996 45.578 39.922 69.898"/>
		<path d="m2349.3 995.09c23.53-175.16-2.57-348.14-119.51-486.09-5.29-6.23 30.59-41.129 32.55-38.808 117.67 138.79 143.55 312.81 119.91 488.77-1.84 13.65-32.47 32.56-32.95 36.13"/>
		<path d="m2183.8 581.04c81.89 8.914 187.92-0.903 259.48-44.454 17.5-10.648 7.29-39.007-1.8-52.621-12.96-19.382-39.23-27.879-60.32-33.925-46.29-13.274-96.78-10.043-144.37-9.77 5.51-0.031 18.38-38.73 32.56-38.809 63.07-0.371 136.58-6.293 191.35 30.684 43.97 29.695 19.37 79.668-8.19 109.86-69.45 76.102-203.94 88.442-301.27 77.848 3.72 0.402 19.45-40.242 32.56-38.812"/>
		<path d="m1614 2413.5c-19.2-223.06-23.53-446.81-24.13-670.6-1.22-451.02 6.97-902.11 12.31-1353.1 0.22-18.497 46.67-48.219 46.7-51.2-5.3 447.9-13.15 895.89-12.33 1343.8 0.41 226.85 4.69 453.72 24.15 679.84 1.5 17.41-46.81 49.96-46.7 51.2"/>
		<path d="m2038.8 2248.3c-12.15-606.03-47.11-1211.3-58.99-1817.4-0.36-18.183 46.75-48.773 46.7-51.199 11.89 606.04 46.85 1211.3 58.99 1817.4 0.37 18.18-46.75 48.79-46.7 51.21"/>
		<path d="m1463.3 870.02c-12.69 2.25-27.72 38.071-29.61 38.434 407.78-72.992 824.93-70.828 1237.8-70.828 14.04 0 26.92-38.524 32.31-38.524-23.1 0-46.17-0.007-69.3-0.007-390.98 0-785.38 1.925-1171.2 70.925"/>
	</g>
</svg>
