<?xml version="1.0" encoding="UTF-8" standalone="no"?>
<svg xmlns="http://www.w3.org/2000/svg" version="1.1" width="2864" height="2864">
	<g transform="matrix(1.0186664,0,0,-1.0186664,4.4018092,2645.0511)" >
		<path fill="#9f0e22" d="M 2803.1,245.621 C 2366.5,162.035 1424.12,192.449 303.559,348.641 377.477,317.289 434.195,281.641 502.855,237.172 1600.62,81.8008 2321.76,86.8594 2747.34,178.066 c 38.85,21.957 43.91,37.157 55.76,67.555 l 0,0" />
		<path fill="#4997d9" d="m 750.84,519.199 c -3.262,-8.187 -6.348,-15.597 -9.176,-22.133 120.332,30.688 225.27,104.942 343.086,35.821 15.74,220.496 47.34,458.816 171.17,807.113 4.24,87.85 10.44,177.85 18.72,275.68 -32.94,-389.52 -32.94,-655.742 -4.41,-1155.153 -153.8,24.028 -431.277,6.567 -566.007,-45.722 10.98,25.562 26.933,61.226 46.617,104.394" />
		<path fill="#225aa6" d="M 1264.75,2259.18 C 874.328,1732.13 422.793,1043.55 272.227,812.516 422.793,1043.55 874.328,1732.13 1264.75,2259.18" />
		<path fill="#0974c5" d="m 558.344,742.5 c 206.461,87.387 255.051,179.547 421.461,166.676 51.215,535.044 176.585,737.284 298.165,1058.394 -99.69,-165.17 -197.96,-330.05 -290.65,-486.98 0.004,0.03 0.016,0.07 0.02,0.1 98.45,166.7 203.2,342.34 309.27,517.76 C 1111.74,1507.86 1069.98,777.684 1069.98,599.125 994.473,638.547 729.516,620.547 420.367,496.168 c 25.957,48.164 73.844,133.75 137.977,246.332 m 157.988,274.88 0.02,0 C 673.578,943.52 633.977,874.75 598.266,812.398 c 35.687,62.329 75.324,131.157 118.066,204.982" />
		<path fill="#095fa8" d="M 1264.75,2259.18 C 968.824,1847.07 953.434,1191.32 953.434,1012.76 733.383,1076.58 489.125,948.957 272.227,812.516 422.793,1043.55 874.328,1732.13 1264.75,2259.18" />
		<g fill="#09397f">
			<path d="M 2792.65,267.379 C 2399.82,192.129 1581.42,221.758 566.953,338.188 468.238,349.551 184.496,383.785 14.0039,405.801 4.73828,420.977 0,445.41 0,475.102 632.199,407.871 2233.08,205.469 2784.55,310.383 c 2.5,-11.766 8.83,-18.098 8.1,-43.004 l 0,0" />
			<path d="m 785.875,601.973 c 1.082,0.179 2.16,0.367 3.242,0.547 -13.808,-29.848 -26.586,-57.637 -38.09,-82.868 -0.066,-0.148 -0.125,-0.3 -0.187,-0.453 -19.684,-43.168 -35.637,-78.832 -46.617,-104.394 134.73,52.289 412.207,69.75 566.007,45.722 -28.35,496.391 -28.52,762.423 3.82,1148.123 0.2,0.4 0.4,0.78 0.59,1.17 -32.94,-389.51 -27.09,-673.285 1.45,-1172.785 -153.81,24.121 -454.598,0.813 -589.328,-51.48 19.199,44.738 54.55,121.613 99.113,216.418" />
			<path d="m 769.867,0 c 0.821,1.01562 1.688,2.12109 2.567,3.125 45.586,54.125 131.164,99.047 254.516,94.6836 240.49,-8.4375 443.31,-25.0391 809.32,-7.0547 -360,9.1445 -798.36,47.1291 -1326.653,121.9301 C 640.898,136.34 750.098,21.3906 769.867,0 l 0,0" />
		</g>
		<path d="m 1134.71,1330.7 c 56.28,116.28 105.94,217.58 139.93,284.98 -33.99,-67.4 -83.65,-168.7 -139.93,-284.98 l 0,0" />
		<path d="m 751.027,519.652 c 11.504,25.231 24.282,53.02 38.09,82.868 136.246,22.773 238.443,18.75 280.863,-3.395 0,105.563 14.6,403.905 64.73,731.575 56.28,116.28 105.94,217.58 139.93,284.98 -8.28,-97.83 -14.48,-187.83 -18.72,-275.68 -123.83,-348.297 -155.43,-586.617 -171.17,-807.113 -117.816,69.121 -222.754,-5.133 -343.086,-35.821 2.883,6.661 6.031,14.219 9.363,22.586" />
		<path d="M 598.266,812.398 C 584.34,788.078 571.035,764.781 558.344,742.5 l -0.008,-0.004 c 12.691,22.27 26.012,45.594 39.93,69.902" />
		<path d="m 598.266,812.398 c -13.926,-24.32 -27.231,-47.617 -39.922,-69.898 12.691,22.281 25.996,45.578 39.922,69.898" />
		<path d="m 598.266,812.398 c 35.711,62.352 75.312,131.122 118.086,204.982 80.535,16.61 160.261,17.66 237.082,-4.62 0,80.69 3.144,258.8 33.886,467.83 92.69,156.93 190.96,321.81 290.65,486.98 -121.58,-321.11 -246.95,-523.35 -298.165,-1058.394 -166.41,12.871 -215,-79.289 -421.461,-166.676 12.691,22.281 25.996,45.578 39.922,69.898" />
		<path d="m 2349.3143,995.09286 c 23.53,-175.157 -2.57,-348.141 -119.51,-486.091 -5.29,-6.23 30.59,-41.129 32.55,-38.808 117.67,138.789 143.55,312.808 119.91,488.769 -1.84,13.65 -32.47,32.56 -32.95,36.13 l 0,0" />
		<path d="m 2183.8043,581.03786 c 81.89,8.914 187.92,-0.903 259.48,-44.454 17.5,-10.648 7.29,-39.007 -1.8,-52.621 -12.96,-19.382 -39.23,-27.879 -60.32,-33.925 -46.29,-13.274 -96.78,-10.043 -144.37,-9.77 5.51,-0.031 18.38,-38.73 32.56,-38.809 63.07,-0.371 136.58,-6.293 191.35,30.684 43.97,29.695 19.37,79.668 -8.19,109.859 -69.45,76.102 -203.94,88.442 -301.27,77.848 3.72,0.402 19.45,-40.242 32.56,-38.812 l 0,0" />
		<path d="m 1613.99,2413.49 c -19.2,-223.06 -23.53,-446.81 -24.13,-670.6 -1.22,-451.02 6.97,-902.109 12.31,-1353.081 0.22,-18.497 46.67,-48.219 46.7,-51.2 -5.3,447.899 -13.15,895.891 -12.33,1343.841 0.41,226.85 4.69,453.72 24.15,679.84 1.5,17.41 -46.81,49.96 -46.7,51.2 l 0,0" />
		<path d="m 2038.82,2248.28 c -12.15,-606.03 -47.11,-1211.34 -58.99,-1817.374 -0.36,-18.183 46.75,-48.773 46.7,-51.199 11.89,606.035 46.85,1211.343 58.99,1817.363 0.37,18.18 -46.75,48.79 -46.7,51.21 l 0,0" />
		<path d="m 1463.29,870.023 c -12.69,2.25 -27.72,38.071 -29.61,38.434 407.78,-72.992 824.93,-70.828 1237.76,-70.828 14.04,0 26.92,-38.524 32.31,-38.524 -23.1,0 -46.17,-0.007 -69.3,-0.007 -390.98,0 -785.38,1.925 -1171.16,70.925" />
	</g>
</svg>
