/* XPM */
static char *harbour-32x32[] = {
/* columns rows colors chars-per-pixel */
"32 32 128 2",
"   c black",
".  c #00050A",
"X  c #01080E",
"o  c #010B13",
"O  c #010E1A",
"+  c #03101B",
"@  c #081018",
"#  c #00152E",
"$  c #021B2F",
"%  c #0C1925",
"&  c #0B1C29",
"*  c #021732",
"=  c #021E33",
"-  c #03223C",
";  c #041F45",
":  c #032946",
">  c #042F50",
",  c #052A5D",
"<  c #053053",
"1  c #04335A",
"2  c #1B3952",
"3  c #053762",
"4  c #00326E",
"5  c #053A63",
"6  c #063E6C",
"7  c #02367C",
"8  c #06387D",
"9  c #083575",
"0  c #0B367A",
"q  c #0A387C",
"w  c #1F326F",
"e  c #193F60",
"r  c #153475",
"t  c #103779",
"y  c #10387A",
"u  c #193473",
"i  c #3B295C",
"p  c #2E2D65",
"a  c #23306C",
"s  c #332B61",
"d  c #06416E",
"f  c #064273",
"g  c #06467B",
"h  c #06497D",
"j  c #0A4470",
"k  c #114A76",
"l  c #204361",
"z  c #6C0000",
"x  c #780A18",
"c  c #681838",
"v  c #73193A",
"b  c #521F47",
"n  c #5C1F46",
"m  c #472656",
"M  c #4A2451",
"N  c #56224D",
"B  c #522350",
"V  c #651E44",
"C  c #033B82",
"Z  c #003E8A",
"A  c #0B3E82",
"S  c #00408D",
"D  c #074B84",
"F  c #074E8B",
"G  c #084F8C",
"H  c #065087",
"J  c #06538D",
"K  c #075793",
"L  c #075895",
"P  c #075B9B",
"I  c #085291",
"U  c #085699",
"Y  c #09599D",
"T  c #195585",
"R  c #095DA4",
"E  c #095FA8",
"W  c #0051B4",
"Q  c #0862A6",
"!  c #0960AA",
"~  c #0A65B3",
"^  c #086AB5",
"/  c #086FBB",
"(  c #0970BD",
")  c #2C5C84",
"_  c #2E628F",
"`  c #246294",
"'  c #316592",
"]  c #336A9A",
"[  c #2967A9",
"{  c #2B6AAC",
"}  c #2D6EB3",
"|  c #3A77AB",
" . c #3A78AE",
".. c #3071B4",
"X. c #3A79B0",
"o. c #0973C3",
"O. c #0976C8",
"+. c #097CD2",
"@. c #0079F8",
"#. c #0B89E8",
"$. c #0080FB",
"%. c #008AFF",
"&. c #0C9BFF",
"*. c #00B2FF",
"=. c #00E5FF",
"-. c #00EEFF",
";. c #4288C3",
":. c #418BCC",
">. c #438FD3",
",. c #4692D4",
"<. c #4995D6",
"1. c #4A97DA",
"2. c #4D9DDF",
"3. c #4A9CE4",
"4. c #52A5E8",
"5. c #5BB3F8",
"6. c #9F0C1C",
"7. c #87142F",
"8. c #8C132C",
"9. c #841531",
"0. c #9B0E22",
"q. c #951026",
"w. c #921128",
"e. c #A10C1E",
"r. c #A00D20",
"t. c #CA0205",
"y. c #F80000",
"u. c None",
/* pixels */
"u.u.u.u.u.u.u.u.u.u.u.u.u.u.u.u.u.u.u.u.u.u.u.u.u.u.u.u.u.u.u.u.",
"u.u.u.u.u.u.u.u.u.u.u.u.u.u.u.u.u.u.  u.u.u.u.u.u.u.u.u.u.u.u.u.",
"u.u.u.u.u.u.u.u.u.u.u.u.u.u.u.u.u.      u.u.u.u.u.u.u.u.u.u.u.u.",
"u.u.u.u.u.u.u.u.u.u.u.u.u.3 < u.u.      u.u.    u.u.u.u.u.u.u.u.",
"u.u.u.u.u.u.u.u.u.u.u.u.u.F f u.u.      u.u.      u.u.u.u.u.u.u.",
"u.u.u.u.u.u.u.u.u.u.u.u.Y Y h u.u.      u.u.      u.u.u.u.u.u.u.",
"u.u.u.u.u.u.u.u.u.u.u.Y R R h J u.      u.u.      u.u.u.u.u.u.u.",
"u.u.u.u.u.u.u.u.u.u.u.R R : 3 ^ u.      u.u.      u.u.u.u.u.u.u.",
"u.u.u.u.u.u.u.u.u.u.R R R = 3 u.u.      u.u.      u.u.u.u.u.u.u.",
"u.u.u.u.u.u.u.u.u.Y R E 1 : L u.u.      u.u.      u.u.u.u.u.u.u.",
"u.u.u.u.u.u.u.u.u.R E E O d &.u.u.      u.u.      u.u.u.u.u.u.u.",
"u.u.u.u.u.u.u.u.R E E g $ P   . u.      u.u.      u.u.u.u.u.u.u.",
"u.u.u.u.u.u.u.Y R E E - 1 h   u.u.      u.u.    u.u.u.u.u.u.u.u.",
"u.u.u.u.u.u.u.R E E R * H -   u.u.      u.u.    u.u.u.u.u.u.u.u.",
"u.u.u.u.u.u.R R E E U = K + % u.u.      u.u.    u.u.u.u.u.u.u.u.",
"u.u.u.u.u.R R E E E I > J & _ u.u.      u.u.    u.u.u.u.u.u.u.u.",
"u.u.u.u.u.R E Q ! ! F 6 h 2 :.u.u.      u.u.    u.u.u.u.u.u.u.u.",
"u.u.u.u.R R E E I D f D f ) ,.u.u.      u.u.    u.u.  u.u.u.u.u.",
"u.u.u.Y R ! ! 1 X . o J j | >.u.        u.u.    u.u.    u.u.u.u.",
"u.u.u.R R R X   + 3 I ^ k ;.:.u.                              u.",
"u.u.F Y Y u.- 1 Q O.O.( T ,.:.u.                                ",
"u.u.u.u.u.( ^ o.O.O.O.( ` <.:.u.u.      u.u.    u.u.    u.u.u.u.",
"u.u.u.u.u.o.O.O.^ g d f ` 1.:.u.u.      u.u.            u.u.u.u.",
"q 9 u.u./ o.O.+.2 l ' ] X.>.:.u.u.      u.u.              u.u.u.",
"q q q q C C 7 A { ..} } { { [ u.u.      u.u.    u.        u.u.u.",
"q q 8 u s s a u t q 8 8 7 7 C C C 7 * , C C * # W O . . 4 S Z Z ",
"u.u.u.y.e.0.w.w.8.9.v V b m s s a a u r t t t 0 0 t t r u a s i ",
"u.u.u.u.u.c s p i N V v 9.8.q.q.q.q.q.w.w.8.7.9.9.9.9.7.8.8.w.0.",
"u.u.u.u.u.u.Z 8 C 8 C 8 0 r a p i M N v 8.0.e.e.e.e.e.e.e.6.6.u.",
"u.u.u.u.u.u.u.9 q q u.u.u.u.u.$.@.*.u.u.u.u.u.u.u.u.u.u.u.u.u.u.",
"u.u.u.u.u.u.u.u.u.u.u.u.u.u.u.u.u.u.u.u.u.u.u.u.u.u.u.u.u.u.u.u.",
"u.u.u.u.u.u.u.u.u.u.u.u.u.u.u.u.u.u.u.u.u.u.u.u.u.u.u.u.u.u.u.u."
};
