/* XPM */
static char *harbour-32x32[] = {
/* columns rows colors chars-per-pixel */
"32 32 125 2",
"   c black",
".  c #00050A",
"X  c #01080E",
"o  c #010B13",
"O  c #010E1A",
"+  c #03101B",
"@  c #081017",
"#  c #00142D",
"$  c #021C2F",
"%  c #0C1925",
"&  c #0B1C29",
"*  c #021732",
"=  c #021F35",
"-  c #03223C",
";  c #042148",
":  c #032946",
">  c #042F52",
",  c #05295C",
"<  c #043052",
"1  c #053359",
"2  c #1B3952",
"3  c #053761",
"4  c #00326D",
"5  c #053A63",
"6  c #063E6D",
"7  c #02367C",
"8  c #06397E",
"9  c #083575",
"0  c #0B377A",
"q  c #0A387C",
"w  c #1F326F",
"e  c #193F60",
"r  c #143475",
"t  c #103779",
"y  c #10387B",
"u  c #193473",
"i  c #3C295C",
"p  c #2E2D65",
"a  c #23316C",
"s  c #332B61",
"d  c #06416E",
"f  c #064273",
"g  c #07477D",
"h  c #054A7C",
"j  c #0A4470",
"k  c #114A76",
"l  c #204361",
"z  c #6A0814",
"x  c #740000",
"c  c #681838",
"v  c #73193A",
"b  c #521F47",
"n  c #5C1F46",
"m  c #472656",
"M  c #4B2452",
"N  c #56224D",
"B  c #522350",
"V  c #651E44",
"C  c #033B82",
"Z  c #003E8A",
"A  c #0B3D82",
"S  c #00408D",
"D  c #074C85",
"F  c #074E8B",
"G  c #07538D",
"H  c #075793",
"J  c #075895",
"K  c #075B9B",
"L  c #085291",
"P  c #085699",
"I  c #09599D",
"U  c #195585",
"Y  c #095DA4",
"T  c #095FA8",
"R  c #0051B4",
"E  c #0862A6",
"W  c #0960AA",
"Q  c #0A65B3",
"!  c #086BB5",
"~  c #086FBB",
"^  c #0970BD",
"/  c #2C5C84",
"(  c #2E628F",
")  c #246294",
"_  c #316592",
"`  c #336A9A",
"'  c #2967AA",
"]  c #2B6AAD",
"[  c #2D6EB3",
"{  c #3A77AA",
"}  c #3A78AE",
"|  c #3071B4",
" . c #3A79B0",
".. c #0973C3",
"X. c #0976C8",
"o. c #097BD1",
"O. c #007CF9",
"+. c #0B89E8",
"@. c #0089FF",
"#. c #0C9BFF",
"$. c #00B4FF",
"%. c #00E7FF",
"&. c #00F0FF",
"*. c #4288C3",
"=. c #418BCC",
"-. c #438FD3",
";. c #4692D4",
":. c #4995D6",
">. c #4A97DA",
",. c #4D9DDF",
"<. c #4A9DE5",
"1. c #52A5E8",
"2. c #5BB4F8",
"3. c #9D0B1B",
"4. c #87142F",
"5. c #8C132C",
"6. c #841531",
"7. c #9B0E22",
"8. c #951026",
"9. c #921128",
"0. c #A10C1E",
"q. c #A10D20",
"w. c #CB0205",
"e. c #F90000",
"r. c None",
/* pixels */
"r.r.r.r.r.r.r.r.r.r.r.r.r.r.r.r.r.r.r.r.r.r.r.r.r.r.r.r.r.r.r.r.",
"r.r.r.r.r.r.r.r.r.r.r.r.r.r.r.r.r.r.  r.r.r.r.r.r.r.r.r.r.r.r.r.",
"r.r.r.r.r.r.r.r.r.r.r.r.r.r.r.r.r.      r.r.r.r.r.r.r.r.r.r.r.r.",
"r.r.r.r.r.r.r.r.r.r.r.r.r.3 > r.r.      r.r.    r.r.r.r.r.r.r.r.",
"r.r.r.r.r.r.r.r.r.r.r.r.r.F f r.r.      r.r.      r.r.r.r.r.r.r.",
"r.r.r.r.r.r.r.r.r.r.r.r.I P g r.r.      r.r.      r.r.r.r.r.r.r.",
"r.r.r.r.r.r.r.r.r.r.r.I Y Y h G r.      r.r.      r.r.r.r.r.r.r.",
"r.r.r.r.r.r.r.r.r.r.r.Y Y : 5 ! r.      r.r.      r.r.r.r.r.r.r.",
"r.r.r.r.r.r.r.r.r.r.Y Y Y = 1 r.r.      r.r.      r.r.r.r.r.r.r.",
"r.r.r.r.r.r.r.r.r.P Y T 1 : J r.r.      r.r.      r.r.r.r.r.r.r.",
"r.r.r.r.r.r.r.r.r.Y T T + d #.r.r.      r.r.      r.r.r.r.r.r.r.",
"r.r.r.r.r.r.r.r.Y T W g $ K   . r.      r.r.      r.r.r.r.r.r.r.",
"r.r.r.r.r.r.r.I T T T - 1 h   r.r.      r.r.    r.r.r.r.r.r.r.r.",
"r.r.r.r.r.r.r.Y T T I $ D -   r.r.      r.r.    r.r.r.r.r.r.r.r.",
"r.r.r.r.r.r.Y Y T W P - H + % r.r.      r.r.    r.r.r.r.r.r.r.r.",
"r.r.r.r.r.I Y T T W L > G & ( r.r.      r.r.    r.r.r.r.r.r.r.r.",
"r.r.r.r.r.Y T T W W F 6 h 2 =.r.r.      r.r.    r.r.r.r.r.r.r.r.",
"r.r.r.r.Y T T Y G D f D f / ;.r.r.      r.r.    r.r.  r.r.r.r.r.",
"r.r.r.Y Y T W 1 . . o G j { -.r.        r.r.    r.r.    r.r.r.r.",
"r.r.r.Y Y Y X   O 5 L ! k *.=.r.                              r.",
"r.r.F I Y r.- 1 E X.X...U -.=.r.                                ",
"r.r.r.r.r.~ ! ..X.X.X.^ ) :.=.r.r.      r.r.    r.r.    r.r.r.r.",
"r.r.r.r.r...X.X.Q h d f ) >.=.r.r.      r.r.            r.r.r.r.",
"q 9 r.r.~ ..X.o.2 l _ `  .;.=.r.r.      r.r.              r.r.r.",
"q q q q C C 7 A ' | [ [ ] ] ' r.r.      r.r.    r.        r.r.r.",
"q q 8 u s s a u y q 7 7 7 7 C C C 7 * , C C * # R O . . 4 S Z Z ",
"r.r.r.e.0.7.8.9.5.6.v V N m i s a a u r y y 0 y 0 y y r u a p i ",
"r.r.r.r.r.c s p i N V v 6.5.9.8.8.8.8.9.9.5.4.6.6.6.6.4.5.5.8.7.",
"r.r.r.r.r.r.Z 8 C 8 8 8 0 r w p i M n v 5.7.0.0.0.0.0.0.0.0.3.r.",
"r.r.r.r.r.r.r.9 q q r.r.r.r.r.O.O.$.r.r.r.r.r.r.r.r.r.r.r.r.r.r.",
"r.r.r.r.r.r.r.r.r.r.r.r.r.r.r.r.r.r.r.r.r.r.r.r.r.r.r.r.r.r.r.r.",
"r.r.r.r.r.r.r.r.r.r.r.r.r.r.r.r.r.r.r.r.r.r.r.r.r.r.r.r.r.r.r.r."
};
