/* XPM */
static char *harbour-32x32[] = {
/* columns rows colors chars-per-pixel */
"32 32 130 2",
"   c black",
".  c #000508",
"X  c #020915",
"o  c #03121E",
"O  c #021320",
"+  c #02182B",
"@  c #0E1D2A",
"#  c #021D33",
"$  c #03243D",
"%  c #0E2232",
"&  c #13273A",
"*  c #032541",
"=  c #042C4B",
"-  c #042E51",
";  c #053155",
":  c #05355C",
">  c #04385F",
",  c #0A3256",
"<  c #103654",
"1  c #133E5F",
"2  c #052E6A",
"3  c #02316E",
"4  c #053963",
"5  c #073D6D",
"6  c #063677",
"7  c #04397E",
"8  c #0B3475",
"9  c #0A377A",
"0  c #09387D",
"q  c #10326F",
"w  c #143577",
"e  c #193372",
"r  c #232B5F",
"t  c #3E295C",
"y  c #212F68",
"u  c #23316D",
"i  c #322C62",
"p  c #1F415E",
"a  c #05416E",
"s  c #064373",
"d  c #07457B",
"f  c #054A7C",
"g  c #0B4775",
"h  c #08487F",
"j  c #124E7C",
"k  c #4D1C3F",
"l  c #730A18",
"z  c #6E1B3D",
"x  c #731A3B",
"c  c #7D1634",
"v  c #7A1837",
"b  c #462657",
"n  c #412759",
"m  c #4B2554",
"M  c #55224E",
"N  c #5B204A",
"B  c #502350",
"V  c #631E44",
"C  c #6A1C41",
"Z  c #013B83",
"A  c #003F8C",
"S  c #064E85",
"D  c #06498E",
"F  c #0F458A",
"G  c #084B85",
"H  c #0A4295",
"J  c #065087",
"K  c #07538D",
"L  c #08518F",
"P  c #065591",
"I  c #075C9C",
"U  c #085494",
"Y  c #095699",
"T  c #09599D",
"R  c #10458A",
"E  c #13498D",
"W  c #1A598B",
"Q  c #165095",
"!  c #185399",
"~  c #004EA5",
"^  c #075FA1",
"/  c #095DA4",
"(  c #095FA8",
")  c #0961AB",
"_  c #0669B4",
"`  c #0965B3",
"'  c #086BB5",
"]  c #096EBB",
"[  c #0970BF",
"{  c #2F628D",
"}  c #216499",
"|  c #2D6290",
" . c #316696",
".. c #346C9D",
"X. c #346EA2",
"o. c #3D7DB4",
"O. c #3A7DBA",
"+. c #0973C4",
"@. c #0976C8",
"#. c #0A7CD2",
"$. c #0A7FD8",
"%. c #397FC0",
"&. c #0A86E4",
"*. c #3E86C9",
"=. c cyan",
"-. c #14FFFF",
";. c #438AC6",
":. c #428CCD",
">. c #438FD2",
",. c #4692D3",
"<. c #4995D6",
"1. c #4A99DC",
"2. c #4E9FE2",
"3. c #56ABEE",
"4. c #57AEF3",
"5. c #8A0C1D",
"6. c #920D1F",
"7. c #9F0C1E",
"8. c #85142F",
"9. c #8C132C",
"0. c #950D20",
"q. c #9E0D21",
"w. c #951026",
"e. c #921128",
"r. c #A20C1D",
"t. c #AA0916",
"y. c #B40610",
"u. c #A00D20",
"i. c #C90105",
"p. c None",
/* pixels */
"p.p.p.p.p.p.p.p.p.p.p.p.p.p.p.p.p.p.p.p.p.p.p.p.p.p.p.p.p.p.p.p.",
"p.p.p.p.p.p.p.p.p.p.p.p.p.p.p.p.p.p.  p.p.p.p.p.p.p.p.p.p.p.p.p.",
"p.p.p.p.p.p.p.p.p.p.p.p.p.p.p.p.p.      p.p.p.p.p.p.p.p.p.p.p.p.",
"p.p.p.p.p.p.p.p.p.p.p.p.p.5 : p.p.      p.p.    p.p.p.p.p.p.p.p.",
"p.p.p.p.p.p.p.p.p.p.p.p.p.L d p.p.      p.p.      p.p.p.p.p.p.p.",
"p.p.p.p.p.p.p.p.p.p.p.p.I T d p.p.      p.p.      p.p.p.p.p.p.p.",
"p.p.p.p.p.p.p.p.p.p.p./ / / f J p.      p.p.    p.p.p.p.p.p.p.p.",
"p.p.p.p.p.p.p.p.p.p.p./ / $ > #.p.      p.p.    p.p.p.p.p.p.p.p.",
"p.p.p.p.p.p.p.p.p.p./ ( / # 4 p.p.      p.p.    p.p.p.p.p.p.p.p.",
"p.p.p.p.p.p.p.p.p.T ( ( - = I p.p.      p.p.    p.p.p.p.p.p.p.p.",
"p.p.p.p.p.p.p.p.p./ ( ( o s $.p.p.      p.p.    p.p.p.p.p.p.p.p.",
"p.p.p.p.p.p.p.p./ / ( d # I   p.p.      p.p.    p.p.p.p.p.p.p.p.",
"p.p.p.p.p.p.p./ ( ) ( * > a   p.p.      p.p.    p.p.p.p.p.p.p.p.",
"p.p.p.p.p.p.p./ ( ( / # J #   p.p.      p.p.    p.p.p.p.p.p.p.p.",
"p.p.p.p.p.p./ ( ( ( T $ P o & p.p.      p.p.    p.p.p.p.p.p.p.p.",
"p.p.p.p.p./ / ( ( ) U ; K % X.p.p.      p.p.    p.p.p.p.p.p.p.p.",
"p.p.p.p.p./ / ) ) ) U 5 G p :.p.p.      p.p.    p.p.p.p.p.p.p.p.",
"p.p.p.p./ / ) / s : ; f s { ,.p.p.      p.p.    p.p.    p.p.p.p.",
"p.p.p./ / ( ) +   . O K g o.>.p.          p.    p.p.    p.p.p.p.",
"p.p.p./ / )   . $ U _ [ j ;.:.p.                              p.",
"p.p.p.U Y p.s J ] +.+.+.W ,.:.p.p.                            p.",
"p.p.p.p.p.[ +.@.+.+.] _ } <.:.p.p.      p.p.            p.p.p.p.",
"p.p.p.p.p.+.+.+.I = , p | 1.:.p.p.      p.p.              p.p.p.",
"9 0 0 9 D ] +.p.| | O.O.O.;.O.p.p.      p.p.    p.        p.p.p.",
"0 0 0 9 9 9 7 Z Q ! E F R E E 2 p.      p.p.    p.        p.p.p.",
"p.8 7 y V z V M n i u e w 9 0 7 7 7 3 7 Z Z Z Z Z Z Z A Z Z 7 8 ",
"p.p.p.p.i.r.c v 9.e.w.w.9.9.c x C V M m b n n t t t n m B N C z ",
"p.p.p.p.p.p.Z 0 9 w u i b M V x c 8.9.w.q.r.u.q.u.u.u.u.u.r.r.t.",
"p.p.p.p.p.p.p.9 0 7 Z Z Z Z Z Z 7 6 8 r k 0.q.0.0.0.5.p.p.p.p.p.",
"p.p.p.p.p.p.p.p.9 9 p.p.p.p.p.p.p.p.p.p.p.p.p.p.p.p.p.p.p.p.p.p.",
"p.p.p.p.p.p.p.p.p.p.p.p.p.p.p.p.p.p.p.p.p.p.p.p.p.p.p.p.p.p.p.p.",
"p.p.p.p.p.p.p.p.p.p.p.p.p.p.p.p.p.p.p.p.p.p.p.p.p.p.p.p.p.p.p.p."
};
