<svg xmlns="http://www.w3.org/2000/svg" version="1.1" width="1078pt" height="928pt">
	<path fill="#ffffff" d=" M 0.00 0.00 L 620.48 0.00 C 616.92 35.54 615.42 71.29 613.64 106.97 C 613.37 122.66 612.24 138.31 612.37 154.01 C 611.13 176.97 611.68 199.99 611.30 222.97 C 611.04 232.30 611.87 241.69 610.83 250.97 C 610.64 279.97 610.63 308.99 610.84 338.00 C 611.11 339.66 611.29 341.33 611.32 343.02 C 611.27 389.67 611.58 436.33 611.79 482.98 C 612.91 511.65 612.29 540.38 612.88 569.07 C 613.55 575.35 613.21 581.66 613.28 587.96 C 592.45 585.49 571.72 582.13 551.06 578.44 C 553.83 583.57 556.18 589.34 560.92 593.00 C 565.47 594.74 570.45 595.01 575.24 595.76 L 575.90 596.18 C 588.42 597.84 600.85 600.16 613.38 601.80 C 613.63 612.86 613.65 623.92 613.73 634.98 C 614.55 653.65 614.29 672.37 614.58 691.06 C 615.02 714.68 615.40 738.30 615.51 761.93 C 616.02 767.94 615.07 774.06 616.10 780.00 C 619.76 787.92 627.75 792.47 634.15 797.96 C 634.15 790.63 634.35 783.30 633.74 775.99 C 633.63 752.94 633.09 729.89 633.26 706.84 L 632.71 706.11 C 632.65 679.08 632.20 652.06 632.19 625.03 C 631.47 618.14 631.57 611.22 631.64 604.31 C 636.44 604.78 641.23 605.39 646.01 606.08 C 681.25 610.09 716.59 613.32 751.98 615.41 C 756.21 615.49 760.45 615.70 764.64 616.35 C 764.82 630.59 763.55 644.77 763.54 659.01 C 762.51 693.02 761.52 727.02 761.07 761.05 C 760.56 766.10 764.73 769.72 768.00 772.90 C 771.61 776.22 775.48 779.24 779.34 782.26 C 779.97 735.50 781.76 688.78 782.86 642.04 C 783.66 633.79 783.45 625.49 783.62 617.21 C 830.26 619.07 876.92 620.47 923.60 620.63 C 920.59 644.14 914.12 667.26 903.70 688.58 C 884.94 685.27 865.77 685.14 846.84 686.96 C 849.90 692.48 852.75 698.34 857.63 702.53 C 870.56 700.91 883.63 701.24 896.63 701.68 C 890.67 711.72 884.00 721.38 876.25 730.11 C 877.85 734.90 881.59 738.44 885.06 741.92 C 886.34 743.31 888.00 744.25 889.67 745.11 C 900.05 732.59 908.99 718.92 916.43 704.48 C 930.96 706.84 945.30 711.54 958.06 718.98 C 961.08 720.41 962.75 723.72 962.44 727.02 C 961.88 735.19 957.01 743.07 949.60 746.75 C 937.97 752.66 924.89 755.28 911.93 755.94 C 901.22 756.87 890.47 756.01 879.75 756.35 C 882.22 759.69 884.03 763.46 886.32 766.94 C 887.88 769.19 890.03 771.72 893.08 771.47 C 907.76 771.42 922.51 772.15 937.11 770.17 C 948.90 768.04 961.21 764.52 970.07 756.03 C 975.26 751.15 975.54 743.47 974.34 736.91 C 972.08 728.50 966.82 721.29 960.94 715.03 C 953.25 707.46 944.03 701.51 934.10 697.32 C 930.02 695.53 925.74 694.25 921.67 692.46 C 926.84 680.43 930.55 667.81 933.33 655.03 C 935.59 643.91 937.64 632.67 937.78 621.31 C 942.82 620.44 947.94 620.83 953.03 620.77 C 981.78 620.75 1010.54 620.81 1039.29 620.74 C 1035.95 616.31 1034.14 610.76 1029.98 606.98 C 1028.12 605.11 1025.34 605.71 1022.99 605.59 C 994.88 605.58 966.78 605.76 938.68 605.50 C 938.82 591.99 938.42 578.47 936.76 565.05 C 936.17 560.82 936.54 555.95 933.52 552.55 C 930.37 548.84 926.35 546.03 922.65 542.93 C 925.49 563.62 926.44 584.58 925.16 605.44 C 909.12 605.42 893.06 605.68 877.04 604.79 C 862.93 604.60 848.81 604.65 834.70 604.25 C 822.86 603.02 810.88 604.22 799.05 602.88 C 794.17 602.62 789.29 602.64 784.41 602.57 C 784.49 597.04 784.48 591.50 784.75 585.98 C 785.81 575.66 785.19 565.25 785.87 554.91 C 786.81 545.31 786.14 535.62 787.11 526.02 C 788.45 483.65 790.38 441.30 791.88 398.94 C 792.89 388.66 792.12 378.30 793.21 368.03 C 793.63 361.01 793.39 353.96 793.79 346.94 C 794.80 338.33 794.20 329.64 794.80 321.00 C 795.86 311.35 794.99 301.60 796.04 291.95 C 798.09 222.98 800.86 154.00 801.80 85.00 C 802.56 80.65 799.56 77.24 796.72 74.41 C 792.68 70.30 788.04 66.87 783.65 63.16 C 783.30 74.10 783.67 85.07 782.76 95.99 C 782.46 107.98 782.79 120.01 781.87 131.97 C 780.64 191.92 778.19 251.86 776.13 311.78 C 775.21 320.87 775.76 330.02 775.15 339.12 C 774.09 348.36 774.97 357.71 773.91 366.95 C 771.87 427.66 769.16 488.39 767.12 549.11 C 766.07 560.37 766.93 571.71 765.77 582.96 C 765.49 589.15 765.51 595.35 765.42 601.54 C 720.66 599.36 675.96 595.81 631.47 590.41 C 631.09 573.93 631.83 557.41 630.67 540.97 C 630.57 513.29 630.34 485.61 630.29 457.94 C 629.16 446.34 630.05 434.67 629.63 423.03 C 629.49 351.70 629.30 280.36 629.72 209.02 C 630.88 192.71 630.18 176.32 630.82 159.98 C 631.71 150.61 631.33 141.18 631.73 131.79 L 632.23 131.13 C 632.38 122.77 632.20 114.38 633.12 106.06 C 633.95 81.67 635.70 57.33 637.56 33.01 C 637.78 27.96 638.96 22.94 638.47 17.88 C 634.95 10.01 627.17 5.33 620.77 0.00 L 1078.00 0.00 L 1078.00 928.00 L 296.16 928.00 C 304.87 917.79 315.61 909.36 327.72 903.55 C 348.77 893.11 372.70 889.70 396.01 890.58 C 422.71 891.60 449.39 892.94 476.08 893.83 C 487.33 894.94 498.67 894.10 509.93 895.22 C 519.97 895.50 530.02 895.56 540.06 895.75 C 555.69 896.74 571.36 896.18 587.01 896.34 C 599.00 896.35 610.99 896.34 622.99 896.24 C 635.96 895.33 648.98 895.65 661.97 895.23 C 667.29 894.75 672.63 894.53 677.98 894.50 C 687.44 894.54 696.84 893.42 706.28 893.04 C 543.51 888.43 381.32 871.54 220.05 849.40 C 211.92 848.46 203.87 846.57 195.66 846.47 C 233.09 868.15 265.90 896.99 295.85 928.00 L 0.00 928.00 L 0.00 752.49 C 0.55 758.68 1.66 764.97 4.36 770.62 C 4.99 772.55 7.34 772.26 8.93 772.65 C 100.53 784.17 192.15 795.56 283.93 805.52 C 372.49 814.94 461.18 823.25 550.01 829.50 C 652.16 836.78 754.51 841.53 856.96 841.33 C 908.41 840.76 959.91 839.33 1011.12 834.23 C 1032.07 832.00 1052.99 829.37 1073.67 825.35 C 1074.07 819.48 1072.79 813.71 1070.42 808.36 C 1046.55 813.12 1022.26 815.34 998.02 817.02 C 959.09 819.62 920.05 819.98 881.03 819.69 C 865.69 819.36 850.33 819.71 835.02 818.75 C 803.62 818.29 772.28 816.57 740.92 815.18 C 603.55 807.75 466.51 795.14 329.66 781.13 C 314.92 778.44 299.89 777.71 285.03 775.88 C 283.53 775.62 282.17 774.89 280.80 774.32 C 303.45 768.21 326.65 764.33 349.92 761.50 C 396.62 756.28 443.97 754.17 490.72 759.90 C 489.58 736.92 488.02 713.97 487.14 690.99 C 486.15 682.35 486.73 673.62 485.70 664.98 C 485.56 652.37 484.35 639.82 484.33 627.21 C 483.32 615.84 483.73 604.41 482.98 593.03 C 481.42 542.26 480.90 491.45 482.57 440.67 C 483.18 429.45 483.56 418.21 483.79 406.98 C 484.89 398.36 484.32 389.65 485.43 381.03 C 485.56 369.93 487.27 358.93 487.47 347.84 C 488.08 334.04 490.04 320.27 490.10 306.46 L 489.81 307.01 C 480.54 324.50 472.13 342.44 463.31 360.16 C 454.62 377.84 446.04 395.57 437.45 413.30 C 437.46 406.77 438.88 400.38 439.87 393.96 C 453.18 314.29 470.64 234.95 498.67 159.04 C 496.26 163.25 493.57 167.29 491.11 171.48 C 453.79 233.01 416.98 294.85 380.45 356.84 C 380.44 351.51 381.62 346.30 382.45 341.07 C 390.28 293.42 401.16 246.20 416.59 200.42 C 431.10 157.39 449.76 115.59 474.20 77.24 C 477.86 71.00 482.48 65.39 486.06 59.10 C 472.63 77.94 458.59 96.34 445.17 115.19 C 376.01 210.95 309.04 308.27 243.06 406.24 C 200.22 469.83 157.91 533.78 115.96 597.96 C 112.15 603.93 108.06 609.72 104.52 615.85 C 139.61 593.84 175.53 572.80 213.77 556.67 C 233.55 548.44 253.90 541.30 274.95 537.16 C 254.60 572.27 234.27 607.39 214.33 642.75 C 203.51 661.87 192.62 680.96 181.91 700.16 C 175.18 712.43 168.05 724.50 161.78 737.02 C 178.14 731.09 194.31 724.63 210.93 719.43 C 240.63 709.97 270.83 701.74 301.66 696.93 C 301.31 697.70 300.60 699.23 300.25 700.00 C 288.65 724.72 277.17 749.48 266.06 774.42 C 177.34 764.98 88.72 754.62 0.00 745.17 L 0.00 0.00 Z" />
	<path fill="#050303" d=" M 620.48 0.00 L 620.77 0.00 C 627.17 5.33 634.95 10.01 638.47 17.88 C 638.96 22.94 637.78 27.96 637.56 33.01 C 635.70 57.33 633.95 81.67 633.12 106.06 C 632.20 114.38 632.38 122.77 632.23 131.13 L 631.73 131.79 C 631.33 141.18 631.71 150.61 630.82 159.98 C 630.18 176.32 630.88 192.71 629.72 209.02 C 629.30 280.36 629.49 351.70 629.63 423.03 C 630.05 434.67 629.16 446.34 630.29 457.94 C 630.34 485.61 630.57 513.29 630.67 540.97 C 631.83 557.41 631.09 573.93 631.47 590.41 C 675.96 595.81 720.66 599.36 765.42 601.54 C 765.51 595.35 765.49 589.15 765.77 582.96 C 766.93 571.71 766.07 560.37 767.12 549.11 C 769.16 488.39 771.87 427.66 773.91 366.95 C 774.97 357.71 774.09 348.36 775.15 339.12 C 775.76 330.02 775.21 320.87 776.13 311.78 C 778.19 251.86 780.64 191.92 781.87 131.97 C 782.79 120.01 782.46 107.98 782.76 95.99 C 783.67 85.07 783.30 74.10 783.65 63.16 C 788.04 66.87 792.68 70.30 796.72 74.41 C 799.56 77.24 802.56 80.65 801.80 85.00 C 800.86 154.00 798.09 222.98 796.04 291.95 C 794.99 301.60 795.86 311.35 794.80 321.00 C 794.20 329.64 794.80 338.33 793.79 346.94 C 793.39 353.96 793.63 361.01 793.21 368.03 C 792.12 378.30 792.89 388.66 791.88 398.94 C 790.38 441.30 788.45 483.65 787.11 526.02 C 786.14 535.62 786.81 545.31 785.87 554.91 C 785.19 565.25 785.81 575.66 784.75 585.98 C 784.48 591.50 784.49 597.04 784.41 602.57 C 789.29 602.64 794.17 602.62 799.05 602.88 C 810.88 604.22 822.86 603.02 834.70 604.25 C 848.81 604.65 862.93 604.60 877.04 604.79 C 893.06 605.68 909.12 605.42 925.16 605.44 C 926.44 584.58 925.49 563.62 922.65 542.93 C 926.35 546.03 930.37 548.84 933.52 552.55 C 936.54 555.95 936.17 560.82 936.76 565.05 C 938.42 578.47 938.82 591.99 938.68 605.50 C 966.78 605.76 994.88 605.58 1022.99 605.59 C 1025.34 605.71 1028.12 605.11 1029.98 606.98 C 1034.14 610.76 1035.95 616.31 1039.29 620.74 C 1010.54 620.81 981.78 620.75 953.03 620.77 C 947.94 620.83 942.82 620.44 937.78 621.31 C 937.64 632.67 935.59 643.91 933.33 655.03 C 930.55 667.81 926.84 680.43 921.67 692.46 C 925.74 694.25 930.02 695.53 934.10 697.32 C 944.03 701.51 953.25 707.46 960.94 715.03 C 966.82 721.29 972.08 728.50 974.34 736.91 C 975.54 743.47 975.26 751.15 970.07 756.03 C 961.21 764.52 948.90 768.04 937.11 770.17 C 922.51 772.15 907.76 771.42 893.08 771.47 C 890.03 771.72 887.88 769.19 886.32 766.94 C 884.03 763.46 882.22 759.69 879.75 756.35 C 890.47 756.01 901.22 756.87 911.93 755.94 C 924.89 755.28 937.97 752.66 949.60 746.75 C 957.01 743.07 961.88 735.19 962.44 727.02 C 962.75 723.72 961.08 720.41 958.06 718.98 C 945.30 711.54 930.96 706.84 916.43 704.48 C 908.99 718.92 900.05 732.59 889.67 745.11 C 888.00 744.25 886.34 743.31 885.06 741.92 C 881.59 738.44 877.85 734.90 876.25 730.11 C 884.00 721.38 890.67 711.72 896.63 701.68 C 883.63 701.24 870.56 700.91 857.63 702.53 C 852.75 698.34 849.90 692.48 846.84 686.96 C 865.77 685.14 884.94 685.27 903.70 688.58 C 914.12 667.26 920.59 644.14 923.60 620.63 C 876.92 620.47 830.26 619.07 783.62 617.21 C 783.45 625.49 783.66 633.79 782.86 642.04 C 781.76 688.78 779.97 735.50 779.34 782.26 C 775.48 779.24 771.61 776.22 768.00 772.90 C 764.73 769.72 760.56 766.10 761.07 761.05 C 761.52 727.02 762.51 693.02 763.54 659.01 C 763.55 644.77 764.82 630.59 764.64 616.35 C 760.45 615.70 756.21 615.49 751.98 615.41 C 716.59 613.32 681.25 610.09 646.01 606.08 C 641.23 605.39 636.44 604.78 631.64 604.31 C 631.57 611.22 631.47 618.14 632.19 625.03 C 632.20 652.06 632.65 679.08 632.71 706.11 L 633.26 706.84 C 633.09 729.89 633.63 752.94 633.74 775.99 C 634.35 783.30 634.15 790.63 634.15 797.96 C 627.75 792.47 619.76 787.92 616.10 780.00 C 615.07 774.06 616.02 767.94 615.51 761.93 C 615.40 738.30 615.02 714.68 614.58 691.06 C 614.29 672.37 614.55 653.65 613.73 634.98 C 613.65 623.92 613.63 612.86 613.38 601.80 C 600.85 600.16 588.42 597.84 575.90 596.18 L 575.24 595.76 C 570.45 595.01 565.47 594.74 560.92 593.00 C 556.18 589.34 553.83 583.57 551.06 578.44 C 571.72 582.13 592.45 585.49 613.28 587.96 C 613.21 581.66 613.55 575.35 612.88 569.07 C 612.29 540.38 612.91 511.65 611.79 482.98 C 611.58 436.33 611.27 389.67 611.32 343.02 C 611.29 341.33 611.11 339.66 610.84 338.00 C 610.63 308.99 610.64 279.97 610.83 250.97 C 611.87 241.69 611.04 232.30 611.30 222.97 C 611.68 199.99 611.13 176.97 612.37 154.01 C 612.24 138.31 613.37 122.66 613.64 106.97 C 615.42 71.29 616.92 35.54 620.48 0.00 Z" />
	<path fill="#245ea4" d=" M 445.17 115.19 C 458.59 96.34 472.63 77.94 486.06 59.10 C 482.48 65.39 477.86 71.00 474.20 77.24 C 449.76 115.59 431.10 157.39 416.59 200.42 C 401.16 246.20 390.28 293.42 382.45 341.07 C 381.62 346.30 380.44 351.51 380.45 356.84 C 379.17 361.04 378.74 365.43 378.17 369.76 C 370.39 425.72 366.86 482.21 366.61 538.69 C 336.86 530.16 305.04 530.52 274.95 537.16 C 253.90 541.30 233.55 548.44 213.77 556.67 C 175.53 572.80 139.61 593.84 104.52 615.85 C 108.06 609.72 112.15 603.93 115.96 597.96 C 157.91 533.78 200.22 469.83 243.06 406.24 C 309.04 308.27 376.01 210.95 445.17 115.19 Z" />
	<path fill="#2475bb" d=" M 491.11 171.48 C 493.57 167.29 496.26 163.25 498.67 159.04 C 470.64 234.95 453.18 314.29 439.87 393.96 C 438.88 400.38 437.46 406.77 437.45 413.30 C 436.86 415.22 436.27 417.15 435.91 419.14 C 428.65 467.22 423.00 515.54 418.71 563.98 C 415.08 608.47 411.74 653.04 411.44 697.70 C 400.09 692.40 387.43 691.41 375.11 690.63 C 351.65 689.83 328.27 692.60 305.10 695.98 C 304.39 696.06 302.97 696.24 302.26 696.33 C 301.58 697.54 300.89 698.75 300.25 700.00 C 300.60 699.23 301.31 697.70 301.66 696.93 C 270.83 701.74 240.63 709.97 210.93 719.43 C 194.31 724.63 178.14 731.09 161.78 737.02 C 168.05 724.50 175.18 712.43 181.91 700.16 C 192.62 680.96 203.51 661.87 214.33 642.75 C 232.80 635.18 250.52 625.90 267.78 615.92 C 282.82 607.24 297.44 597.75 313.09 590.17 C 328.62 582.68 345.72 578.05 363.03 578.21 C 367.59 578.07 372.17 578.66 376.72 578.20 C 379.09 557.80 381.01 537.32 384.02 517.00 C 390.85 468.63 400.59 420.63 414.59 373.81 C 431.39 316.62 455.33 261.95 477.66 206.80 C 482.25 195.06 487.28 183.49 491.11 171.48 Z" />
	<path fill="#050303" d=" M 380.45 356.84 C 416.98 294.85 453.79 233.01 491.11 171.48 C 487.28 183.49 482.25 195.06 477.66 206.80 C 455.33 261.95 431.39 316.62 414.59 373.81 C 400.59 420.63 390.85 468.63 384.02 517.00 C 381.01 537.32 379.09 557.80 376.72 578.20 C 372.17 578.66 367.59 578.07 363.03 578.21 C 345.72 578.05 328.62 582.68 313.09 590.17 C 297.44 597.75 282.82 607.24 267.78 615.92 C 250.52 625.90 232.80 635.18 214.33 642.75 C 234.27 607.39 254.60 572.27 274.95 537.16 C 305.04 530.52 336.86 530.16 366.61 538.69 C 366.86 482.21 370.39 425.72 378.17 369.76 C 378.74 365.43 379.17 361.04 380.45 356.84 Z" />
	<path fill="#050303" d=" M 463.31 360.16 C 472.13 342.44 480.54 324.50 489.81 307.01 C 489.61 319.39 487.76 331.67 487.26 344.03 C 485.45 360.63 485.11 377.32 484.04 393.96 C 483.43 398.96 483.52 404.01 483.42 409.03 C 483.37 413.35 481.32 417.25 480.01 421.26 C 464.80 464.80 451.58 509.07 441.31 554.04 C 428.60 609.58 420.87 666.21 417.28 723.05 C 410.68 719.96 404.15 716.55 397.04 714.80 C 380.66 710.27 363.26 712.34 347.12 716.88 C 327.44 722.35 308.66 730.60 288.96 736.02 C 288.18 736.21 286.61 736.60 285.82 736.79 C 288.59 726.16 294.35 716.67 298.58 706.60 C 300.50 702.95 301.30 698.23 305.10 695.98 C 328.27 692.60 351.65 689.83 375.11 690.63 C 387.43 691.41 400.09 692.40 411.44 697.70 C 411.74 653.04 415.08 608.47 418.71 563.98 C 423.00 515.54 428.65 467.22 435.91 419.14 C 436.27 417.15 436.86 415.22 437.45 413.30 C 446.04 395.57 454.62 377.84 463.31 360.16 Z" />
	<path fill="#5690c8" d=" M 489.81 307.01 L 490.10 306.46 C 490.04 320.27 488.08 334.04 487.47 347.84 C 487.27 358.93 485.56 369.93 485.43 381.03 C 484.32 389.65 484.89 398.36 483.79 406.98 C 483.56 418.21 483.18 429.45 482.57 440.67 C 480.97 449.36 481.93 458.24 481.33 467.02 C 480.25 482.31 480.87 497.65 480.44 512.96 C 480.19 524.99 480.76 537.02 480.52 549.05 C 480.37 554.39 481.20 559.69 481.28 565.02 C 481.15 579.69 481.25 594.37 481.99 609.02 C 483.26 656.35 485.90 703.61 488.42 750.88 C 476.31 749.37 464.16 748.14 451.97 747.55 C 438.98 747.37 425.99 746.14 413.00 747.13 C 373.03 748.11 332.90 751.77 294.00 761.34 C 286.16 763.11 278.72 766.27 270.88 768.01 C 275.05 757.70 279.82 747.66 284.28 737.47 C 285.83 736.97 287.39 736.48 288.96 736.02 C 308.66 730.60 327.44 722.35 347.12 716.88 C 363.26 712.34 380.66 710.27 397.04 714.80 C 404.15 716.55 410.68 719.96 417.28 723.05 C 420.87 666.21 428.60 609.58 441.31 554.04 C 451.58 509.07 464.80 464.80 480.01 421.26 C 481.32 417.25 483.37 413.35 483.42 409.03 C 483.52 404.01 483.43 398.96 484.04 393.96 C 485.11 377.32 485.45 360.63 487.26 344.03 C 487.76 331.67 489.61 319.39 489.81 307.01 Z" />
	<path fill="#323f72" d=" M 481.33 467.02 C 481.93 458.24 480.97 449.36 482.57 440.67 C 480.90 491.45 481.42 542.26 482.98 593.03 C 483.73 604.41 483.32 615.84 484.33 627.21 C 484.35 639.82 485.56 652.37 485.70 664.98 C 486.73 673.62 486.15 682.35 487.14 690.99 C 488.02 713.97 489.58 736.92 490.72 759.90 C 443.97 754.17 396.62 756.28 349.92 761.50 C 326.65 764.33 303.45 768.21 280.80 774.32 C 279.43 774.66 278.08 775.05 276.73 775.46 C 283.65 777.01 290.76 777.30 297.78 778.18 C 308.41 779.17 318.99 780.66 329.66 781.13 C 466.51 795.14 603.55 807.75 740.92 815.18 C 772.28 816.57 803.62 818.29 835.02 818.75 C 850.33 819.71 865.69 819.36 881.03 819.69 C 920.05 819.98 959.09 819.62 998.02 817.02 C 1022.26 815.34 1046.55 813.12 1070.42 808.36 C 1072.79 813.71 1074.07 819.48 1073.67 825.35 C 1052.99 829.37 1032.07 832.00 1011.12 834.23 C 959.91 839.33 908.41 840.76 856.96 841.33 C 754.51 841.53 652.16 836.78 550.01 829.50 C 461.18 823.25 372.49 814.94 283.93 805.52 C 192.15 795.56 100.53 784.17 8.93 772.65 C 7.34 772.26 4.99 772.55 4.36 770.62 C 1.66 764.97 0.55 758.68 0.00 752.49 L 0.00 745.17 C 88.72 754.62 177.34 764.98 266.06 774.42 C 277.17 749.48 288.65 724.72 300.25 700.00 C 300.89 698.75 301.58 697.54 302.26 696.33 C 302.97 696.24 304.39 696.06 305.10 695.98 C 301.30 698.23 300.50 702.95 298.58 706.60 C 294.35 716.67 288.59 726.16 285.82 736.79 C 286.61 736.60 288.18 736.21 288.96 736.02 C 287.39 736.48 285.83 736.97 284.28 737.47 C 279.82 747.66 275.05 757.70 270.88 768.01 C 278.72 766.27 286.16 763.11 294.00 761.34 C 332.90 751.77 373.03 748.11 413.00 747.13 C 425.99 746.14 438.98 747.37 451.97 747.55 C 464.16 748.14 476.31 749.37 488.42 750.88 C 485.90 703.61 483.26 656.35 481.99 609.02 C 481.25 594.37 481.15 579.69 481.28 565.02 C 481.20 559.69 480.37 554.39 480.52 549.05 C 480.76 537.02 480.19 524.99 480.44 512.96 C 480.87 497.65 480.25 482.31 481.33 467.02 Z" />
	<path fill="#b2acb6" d=" M 276.73 775.46 C 278.08 775.05 279.43 774.66 280.80 774.32 C 282.17 774.89 283.53 775.62 285.03 775.88 C 299.89 777.71 314.92 778.44 329.66 781.13 C 318.99 780.66 308.41 779.17 297.78 778.18 C 290.76 777.30 283.65 777.01 276.73 775.46 Z" />
	<path fill="#a11b28" d=" M 116.40 793.93 C 155.28 798.84 194.09 804.34 233.00 809.06 C 310.84 818.52 388.81 826.88 466.94 833.56 C 477.24 834.60 487.60 835.07 497.88 836.24 C 505.91 836.73 513.95 837.27 521.94 838.11 C 570.95 841.52 619.96 845.06 669.03 846.88 C 676.31 847.73 683.67 847.37 690.98 847.82 C 701.29 848.81 711.69 848.25 722.02 849.16 C 820.02 851.87 918.39 852.37 1015.99 842.33 C 1029.35 840.92 1042.66 839.09 1055.95 837.12 C 1063.27 835.95 1070.58 834.72 1077.88 833.40 C 1075.33 840.67 1072.23 848.19 1066.05 853.14 C 1062.12 856.14 1058.13 859.65 1053.08 860.41 C 1009.88 869.41 966.02 874.91 922.08 878.54 C 896.73 880.48 871.35 882.29 845.93 882.83 C 834.31 883.91 822.61 883.40 810.95 883.74 C 801.34 884.74 791.66 884.17 782.01 884.42 C 763.98 884.39 745.96 884.50 727.94 884.17 C 713.34 882.91 698.58 884.21 683.97 882.78 C 677.63 882.63 671.29 882.58 664.96 882.40 C 613.25 880.15 561.54 877.24 510.00 872.88 C 406.63 864.61 303.60 852.41 200.90 838.08 C 198.50 837.61 196.08 837.38 193.65 837.23 C 168.89 821.14 143.67 805.48 116.40 793.93 Z" />
	<path fill="#323f72" d=" M 195.66 846.47 C 203.87 846.57 211.92 848.46 220.05 849.40 C 381.32 871.54 543.51 888.43 706.28 893.04 C 696.84 893.42 687.44 894.54 677.98 894.50 C 672.63 894.53 667.29 894.75 661.97 895.23 C 648.98 895.65 635.96 895.33 622.99 896.24 C 610.99 896.34 599.00 896.35 587.01 896.34 C 571.36 896.18 555.69 896.74 540.06 895.75 C 530.02 895.56 519.97 895.50 509.93 895.22 C 498.67 894.10 487.33 894.94 476.08 893.83 C 449.39 892.94 422.71 891.60 396.01 890.58 C 372.70 889.70 348.77 893.11 327.72 903.55 C 315.61 909.36 304.87 917.79 296.16 928.00 L 295.85 928.00 C 265.90 896.99 233.09 868.15 195.66 846.47 Z" />
</svg>
