/* XPM */
static char *harbour-32x32[] = {
/* columns rows colors chars-per-pixel */
"32 32 131 2",
"   c black",
".  c #00050A",
"X  c #01080E",
"o  c #010B13",
"O  c #010E1A",
"+  c #03101B",
"@  c #081018",
"#  c #00152E",
"$  c #021B2F",
"%  c #0C1925",
"&  c #0B1C29",
"*  c #021630",
"=  c #021C33",
"-  c #03223C",
";  c #041F45",
":  c #052642",
">  c #032946",
",  c #042F50",
"<  c #052A5D",
"1  c #043052",
"2  c #05335A",
"3  c #1B3952",
"4  c #00326E",
"5  c #043A62",
"6  c #073D6C",
"7  c #02367C",
"8  c #06397D",
"9  c #083575",
"0  c #0B377A",
"q  c #0A387C",
"w  c #1F326F",
"e  c #193F60",
"r  c #153475",
"t  c #103779",
"y  c #10387A",
"u  c #193473",
"i  c #3B295C",
"p  c #2E2D65",
"a  c #23316C",
"s  c #332B61",
"d  c #06416E",
"f  c #064271",
"g  c #07467B",
"h  c #054A7C",
"j  c #0A4470",
"k  c #084479",
"l  c #114A76",
"z  c #204361",
"x  c #6C0000",
"c  c #780A18",
"v  c #681838",
"b  c #73193A",
"n  c #521F47",
"m  c #5C1F46",
"M  c #472656",
"N  c #4A2451",
"B  c #56224D",
"V  c #522350",
"C  c #651E44",
"Z  c #033B82",
"A  c #003E8A",
"S  c #0B3E82",
"D  c #00408D",
"F  c #074B82",
"G  c #074F8C",
"H  c #084A83",
"J  c #084D89",
"K  c #065087",
"L  c #06538D",
"P  c #08508E",
"I  c #075793",
"U  c #075895",
"Y  c #075B9B",
"T  c #085190",
"R  c #095698",
"E  c #09589C",
"W  c #195585",
"Q  c #095DA4",
"!  c #095FA8",
"~  c #0051B4",
"^  c #0862A6",
"/  c #0960AA",
"(  c #0964B1",
")  c #086AB5",
"_  c #086FBB",
"`  c #0970BD",
"'  c #2C5C84",
"]  c #2E628F",
"[  c #246294",
"{  c #316592",
"}  c #336A9A",
"|  c #2967A9",
" . c #2B6BAC",
".. c #2D6EB3",
"X. c #3A77AB",
"o. c #3A78AE",
"O. c #3071B4",
"+. c #3A79B0",
"@. c #0973C3",
"#. c #0976C8",
"$. c #097CD2",
"%. c #0079F9",
"&. c #0B89E8",
"*. c #0080FB",
"=. c #008AFF",
"-. c #0C9BFF",
";. c #00B2FF",
":. c #00E5FF",
">. c #00EEFF",
",. c #4288C3",
"<. c #418BCC",
"1. c #438FD3",
"2. c #4692D4",
"3. c #4995D6",
"4. c #4A97DA",
"5. c #4D9DDF",
"6. c #4A9CE4",
"7. c #52A5E8",
"8. c #5BB3F8",
"9. c #9F0C1C",
"0. c #87142F",
"q. c #8C132C",
"w. c #841531",
"e. c #9B0E22",
"r. c #951026",
"t. c #921128",
"y. c #A10C1E",
"u. c #A00D20",
"i. c #CA0205",
"p. c #F80000",
"a. c None",
/* pixels */
"a.a.a.a.a.a.a.a.a.a.a.a.a.a.a.a.a.a.a.a.a.a.a.a.a.a.a.a.a.a.a.a.",
"a.a.a.a.a.a.a.a.a.a.a.a.a.a.a.a.a.a.  a.a.a.a.a.a.a.a.a.a.a.a.a.",
"a.a.a.a.a.a.a.a.a.a.a.a.a.a.a.a.a.      a.a.a.a.a.a.a.a.a.a.a.a.",
"a.a.a.a.a.a.a.a.a.a.a.a.a.6 2 a.a.      a.a.    a.a.a.a.a.a.a.a.",
"a.a.a.a.a.a.a.a.a.a.a.a.a.P g a.a.      a.a.      a.a.a.a.a.a.a.",
"a.a.a.a.a.a.a.a.a.a.a.a.E E h a.a.      a.a.      a.a.a.a.a.a.a.",
"a.a.a.a.a.a.a.a.a.a.a.Q Q Q h L a.      a.a.      a.a.a.a.a.a.a.",
"a.a.a.a.a.a.a.a.a.a.a.Q Q > 5 ) a.      a.a.      a.a.a.a.a.a.a.",
"a.a.a.a.a.a.a.a.a.a.Q Q Q = 5 a.a.      a.a.      a.a.a.a.a.a.a.",
"a.a.a.a.a.a.a.a.a.E Q ! 2 > U a.a.      a.a.      a.a.a.a.a.a.a.",
"a.a.a.a.a.a.a.a.a.Q ! ! O d -.a.a.      a.a.      a.a.a.a.a.a.a.",
"a.a.a.a.a.a.a.a.Q ! / g $ Y   . a.      a.a.      a.a.a.a.a.a.a.",
"a.a.a.a.a.a.a.Q ! / ! - 2 h   a.a.      a.a.    a.a.a.a.a.a.a.a.",
"a.a.a.a.a.a.a.Q ! ! E $ K -   a.a.      a.a.    a.a.a.a.a.a.a.a.",
"a.a.a.a.a.a.Q ! ! / E - I + % a.a.      a.a.    a.a.a.a.a.a.a.a.",
"a.a.a.a.a.Q Q ! ! / T , L & ] a.a.      a.a.    a.a.a.a.a.a.a.a.",
"a.a.a.a.a.Q / / / / G 6 F 3 <.a.a.      a.a.    a.a.a.a.a.a.a.a.",
"a.a.a.a.Q Q ^ Q T H f F f ' 1.a.a.      a.a.    a.a.  a.a.a.a.a.",
"a.a.a.Q ! / / 2 X . o P j X.1.a.        a.a.    a.a.    a.a.a.a.",
"a.a.a.Q Q Q X   O 5 P ) l ,.<.a.                              a.",
"a.a.P E Q a.- 2 ^ #.#.@.W 2.<.a.                                ",
"a.a.a.a.a._ ) @.#.#.#.` [ 3.<.a.a.      a.a.    a.a.    a.a.a.a.",
"a.a.a.a.a.@.#.#.) g d f [ 4.<.a.a.      a.a.            a.a.a.a.",
"q 9 a.a._ @.#.$.3 z { } +.2.<.a.a.      a.a.              a.a.a.",
"q q q q Z Z 7 S | O..... . .| a.a.      a.a.    a.        a.a.a.",
"q q 8 u s s a u t q 8 8 7 7 Z Z Z 7 * < Z Z = # ~ O . . 4 D A A ",
"a.a.a.p.y.e.t.t.q.w.b C n M s p a w u r t t t 0 t t t r u a p i ",
"a.a.a.a.a.v s p i B C b w.q.r.r.e.r.r.t.t.q.0.w.w.w.w.0.q.q.r.e.",
"a.a.a.a.a.a.A 8 Z 8 Z 8 0 r w p i N m b q.e.y.y.y.y.y.y.y.9.9.a.",
"a.a.a.a.a.a.a.9 q q a.a.a.a.a.*.%.;.a.a.a.a.a.a.a.a.a.a.a.a.a.a.",
"a.a.a.a.a.a.a.a.a.a.a.a.a.a.a.a.a.a.a.a.a.a.a.a.a.a.a.a.a.a.a.a.",
"a.a.a.a.a.a.a.a.a.a.a.a.a.a.a.a.a.a.a.a.a.a.a.a.a.a.a.a.a.a.a.a."
};
