/* XPM */
static char *harbour_32x32[] = {
/* columns rows colors chars-per-pixel */
"32 32 187 2",
"   c black",
".  c #000001",
"X  c #000508",
"o  c #01111C",
"O  c #03121F",
"+  c #120D1B",
"@  c #02182B",
"#  c #021C30",
"$  c #021D31",
"%  c #021E33",
"&  c #031E35",
"*  c #03233B",
"=  c #03243F",
"-  c #0E2232",
";  c #13273A",
":  c #032441",
">  c #032540",
",  c #032C4A",
"<  c #062C4A",
"1  c #042E51",
"2  c #043054",
"3  c #043358",
"4  c #05345D",
"5  c #04385F",
"6  c #103654",
"7  c #133E5F",
"8  c #02316E",
"9  c #043860",
"0  c #053A63",
"q  c #043D72",
"w  c #02397F",
"e  c #03397E",
"r  c #04387C",
"t  c #05387D",
"y  c #05387F",
"u  c #07387E",
"i  c #08377A",
"p  c #08377B",
"a  c #09377B",
"s  c #0A3679",
"d  c #0D3679",
"f  c #0D377B",
"g  c #09387C",
"h  c #09387D",
"j  c #08397E",
"k  c #0A387C",
"l  c #10326F",
"z  c #123577",
"x  c #153576",
"c  c #193372",
"v  c #232B5F",
"b  c #3F295B",
"n  c #3D295C",
"m  c #212E68",
"M  c #21316E",
"N  c #24306B",
"B  c #312B62",
"V  c #332C62",
"C  c #1F415E",
"Z  c #05406D",
"A  c #05416E",
"S  c #064172",
"D  c #054473",
"F  c #054474",
"G  c #064575",
"H  c #064478",
"J  c #054A7F",
"K  c #0B4775",
"L  c #124E7C",
"P  c #4D1C3F",
"I  c #6D1A3C",
"U  c #6E1B3E",
"Y  c #711A3C",
"T  c #75193A",
"R  c #7C1735",
"E  c #7D1634",
"W  c #7F1634",
"Q  c #7A1837",
"!  c #452657",
"~  c #472656",
"^  c #402759",
"/  c #422759",
"(  c #482655",
")  c #4E2452",
"_  c #52234F",
"`  c #55224D",
"'  c #57224D",
"]  c #5B204A",
"[  c #502350",
"{  c #611D43",
"}  c #601F47",
"|  c #671D42",
" . c #641E44",
".. c #641E45",
"X. c #6A1C41",
"o. c #003A81",
"O. c #013A81",
"+. c #003A82",
"@. c #003B83",
"#. c #023A81",
"$. c #003B84",
"%. c #043980",
"&. c #003F8C",
"*. c #064E85",
"=. c #0F458A",
"-. c #084B8E",
";. c #065087",
":. c #06528C",
">. c #06548F",
",. c #08518F",
"<. c #075492",
"1. c #075398",
"2. c #075B9A",
"3. c #075B9B",
"4. c #085494",
"5. c #085499",
"6. c #08589B",
"7. c #09599F",
"8. c #10458A",
"9. c #13478B",
"0. c #124A8F",
"q. c #15498C",
"w. c #1A598B",
"e. c #165095",
"r. c #175399",
"t. c #085CA1",
"y. c #095CA2",
"u. c #095CA4",
"i. c #095DA4",
"p. c #095EA6",
"a. c #095EA7",
"s. c #095FA7",
"d. c #095FA8",
"f. c #095FA9",
"g. c #0960A9",
"h. c #0961AB",
"j. c #0669B4",
"k. c #086AB4",
"l. c #096DBA",
"z. c #086EBB",
"x. c #0970BE",
"c. c #2F628D",
"v. c #216499",
"b. c #2C6390",
"n. c #2E6190",
"m. c #316696",
"M. c #346EA2",
"N. c #3C7BB1",
"B. c #397DBB",
"V. c #3A7CB8",
"C. c #0871C1",
"Z. c #0972C1",
"A. c #0973C1",
"S. c #0973C3",
"D. c #0973C4",
"F. c #0974C5",
"G. c #0975C6",
"H. c #0975C8",
"J. c #397EC0",
"K. c #3E86C9",
"L. c #438AC6",
"P. c #418ACC",
"I. c #418BCC",
"U. c #418CCE",
"Y. c #428CCE",
"T. c #438DCF",
"R. c #4792D1",
"E. c #4491D4",
"W. c #4995D6",
"Q. c #4A99DB",
"!. c #940D1F",
"~. c #85142F",
"^. c #89132D",
"/. c #8E122A",
"(. c #960D20",
"). c #9C0E21",
"_. c #9F0D20",
"`. c #9F0D21",
"'. c #951026",
"]. c #911129",
"[. c #A20B1C",
"{. c #A00D1F",
"}. c #A20C1E",
"|. c #AA0916",
" X c #A00D20",
".X c #C90105",
"XX c None",
/* pixels */
"XXXXXXXXXXXXXXXXXXXXXXXXXXXXXXXXXXXXXXXXXXXXXXXXXXXXXXXXXXXXXXXX",
"XXXXXXXXXXXXXXXXXXXXXXXXXXXXXXXXXXXX  XXXXXXXXXXXXXXXXXXXXXXXXXX",
"XXXXXXXXXXXXXXXXXXXXXXXXXXXXXXXXXX      XXXXXXXXXXXXXXXXXXXXXXXX",
"XXXXXXXXXXXXXXXXXXXXXXXXXX3 + XXXX      XXXX    XXXXXXXXXXXXXXXX",
"XXXXXXXXXXXXXXXXXXXXXXXXXX,.5.XXXX      XXXX    3 XXXXXXXXXXXXXX",
"XXXXXXXXXXXXXXXXXXXXXXXX1.t.3 XXXX      XXXX    3 XXXXXXXXXXXXXX",
"XXXXXXXXXXXXXXXXXXXXXX-.u.t.q 3 XX      XXXX    XXXXXXXXXXXXXXXX",
"XXXXXXXXXXXXXXXXXXXXXXg.u.: 9 3 XX      XXXX    XXXXXXXXXXXXXXXX",
"XXXXXXXXXXXXXXXXXXXXt.d.u.# 0 XXXX    + XXXX    XXXXXXXXXXXXXXXX",
"XXXXXXXXXXXXXXXXXX5.u.g.1 , t.XXXX    + XXXX    XXXXXXXXXXXXXXXX",
"XXXXXXXXXXXXXXXXXXu.g.d.O D 5.XXXX    + XXXX    XXXXXXXXXXXXXXXX",
"XXXXXXXXXXXXXXXXu.u.g.H # 2.  XXXX    + XXXX    XXXXXXXXXXXXXXXX",
"XXXXXXXXXXXXXXu.d.g.d.: 5 A   XXXX    + XXXX    XXXXXXXXXXXXXXXX",
"XXXXXXXXXXXXXXu.d.g.t.& ;.#   XXXX    + XXXX    XXXXXXXXXXXXXXXX",
"XXXXXXXXXXXXu.g.d.g.6.= <.O ; XXXX    + XXXX    XXXXXXXXXXXXXXXX",
"XXXXXXXXXXu.u.g.d.g.4.2 :.- M.XXXX      XXXX    XXXXXXXXXXXXXXXX",
"XXXXXXXXXXu.g.g.h.g.<.A J C T.XXXX      XXXX    XXXXXXXXXXXXXXXX",
"XXXXXXXXu.u.g.u.S 4 2 J G c.E.XXXX      XXXX    XXXX  + XXXXXXXX",
"XXXXXXu.g.g.g.@   X O >.K N.E.XX        3 XX    XXXX    XXXXXXXX",
"XXXXXX7.u.u.  X * <.k.C.L L.Y.XX                              XX",
"XXXXXX-.3 XXG *.z.H.H.C.w.R.P.XXXX                            XX",
"XXXXXXXXXXx.S.H.G.C.z.j.v.W.P.XXXX      XXXX            XXXXXXXX",
"XXXXXXXXXXC.D.G.6.< 6 7 b.Q.Y.XXXX      XXXX            3 XXXXXX",
"f i j i 5.z.C.XXc.m.B.B.B.K.J.XXXX      XXXX    XX        XXXXXX",
"t j j i f i t %.e.r.0.=.8.8.q.q XX      XXXX    XX        XXXXXX",
"XX+ t m  .U  ._ ^ B N c z f j j t %.8 t #.w #.#.#.@.#.-.#.#.#.s ",
"XXXXXXXX.X}.R Q ^.].'.'.].^.R T X.} ` ) ~ ^ b n n / / ( [ ] | I ",
"XXXXXXXXXXXX$.j f x M V ~ `  .Y R ~./.'._. X X X_._._._.}.}.[.|.",
"XXXXXXXXXXXXXXi j j #.$.$.w #.#.#.w z v P (._.(.!.!.+ XXXXXXXXXX",
"XXXXXXXXXXXXXXXX5.-.XXXXXXXXXXXXXXXXXXXXXXXXXXXXXXXXXXXXXXXXXXXX",
"XXXXXXXXXXXXXXXXXXXXXXXXXXXXXXXXXXXXXXXXXXXXXXXXXXXXXXXXXXXXXXXX",
"XXXXXXXXXXXXXXXXXXXXXXXXXXXXXXXXXXXXXXXXXXXXXXXXXXXXXXXXXXXXXXXX"
};
